<svg width="24" height="24" viewBox="0 0 24 24" fill="none" xmlns="http://www.w3.org/2000/svg">
<path fill-rule="evenodd" clip-rule="evenodd" d="M18.6 12C18.6 15.6451 15.6451 18.6 12 18.6C8.35492 18.6 5.4 15.6451 5.4 12C5.4 8.35492 8.35492 5.4 12 5.4C15.6451 5.4 18.6 8.35492 18.6 12ZM20 12C20 16.4183 16.4183 20 12 20C7.58172 20 4 16.4183 4 12C4 7.58172 7.58172 4 12 4C16.4183 4 20 7.58172 20 12ZM12 16.5714C14.5247 16.5714 16.5714 14.5247 16.5714 12C16.5714 9.47527 14.5247 7.42857 12 7.42857C9.47527 7.42857 7.42857 9.47527 7.42857 12C7.42857 14.5247 9.47527 16.5714 12 16.5714Z" fill="#FD7D36"/>
</svg>
